<svg xmlns="http://www.w3.org/2000/svg" width="20" height="20" viewBox="0 0 20 20">
    <g fill="none" fill-rule="evenodd">
        <g>
            <g>
                <path fill="#4170FF" fill-rule="nonzero" d="M10 0C4.473 0 0 4.473 0 10s4.473 10 10 10 10-4.473 10-10S15.527 0 10 0zm.698 14.372c0 .385-.313.698-.698.698-.385 0-.698-.313-.698-.698v-5.72c0-.386.313-.698.698-.698.385 0 .698.312.698.697v5.721zm0-7.907c0 .385-.313.698-.698.698-.385 0-.698-.313-.698-.698v-.837c0-.385.313-.698.698-.698.385 0 .698.313.698.698v.837z" transform="translate(-30.000000, -271.000000) translate(30.000000, 271.000000)"/>
                <path fill="#D8D8D8" fill-opacity="0" d="M0 0H20V20H0z" transform="translate(-30.000000, -271.000000) translate(30.000000, 271.000000)"/>
            </g>
        </g>
    </g>
</svg>
