<svg xmlns="http://www.w3.org/2000/svg" xmlns:xlink="http://www.w3.org/1999/xlink" width="103" height="33" viewBox="0 0 103 33">
    <defs>
        <path id="ca4ihqatya" d="M0 0L33 0 33 32 0 32z"/>
        <path id="recbxs1ffc" d="M0 0L32 0 32 32 0 32z"/>
    </defs>
    <g fill="none" fill-rule="evenodd">
        <g>
            <g>
                <g transform="translate(-144.000000, -176.000000) translate(144.000000, 176.809100) translate(0.000000, 0.190900)">
                    <mask id="a6rmdyineb" fill="#fff">
                        <use xlink:href="#ca4ihqatya"/>
                    </mask>
                    <path fill="#4170FF" d="M33 6.744c0 1.594-1.275 2.885-2.849 2.885h-.85v3.15c0 1.592-1.276 2.884-2.85 2.884h-.554c-1.574 0-2.85-1.292-2.85-2.884V2.884c0-1.592 1.276-2.884 2.85-2.884h.555C28.025 0 29.3 1.292 29.3 2.884v.975h.851C31.725 3.859 33 5.15 33 6.744zM7.621 27.616H27.47c1.195 0 2.164.981 2.164 2.192 0 1.211-.969 2.192-2.164 2.192H3.607c-1.195 0-2.164-.98-2.164-2.192v-5.17c0-1.212.97-2.193 2.164-2.193h19.515v-1.274H3.533c-1.195 0-2.164-.981-2.164-2.192 0-1.21.97-2.192 2.164-2.192h23.603c1.195 0 2.164.982 2.164 2.192v5.172c0 1.21-.969 2.19-2.164 2.19H7.621v1.275zM0 12.755c0-1.207.808-2.257 1.962-2.558 2.872-.749 4.79-2.762 5.4-4.802h-4.44c-1.368 0-2.478-1.123-2.478-2.51 0-1.387 1.11-2.512 2.479-2.512H18.09c1.37 0 2.478 1.125 2.478 2.511v.001c0 1.387-1.109 2.51-2.478 2.51H13.69c-.074.525-.222 1.05-.407 1.574l5.658 2.593c1.361.625 1.914 2.286 1.204 3.617-.653 1.223-2.138 1.713-3.377 1.113l-6.223-3.014c-1.842 1.895-4.403 3.405-7.439 4.081C1.502 15.715 0 14.416 0 12.755z" mask="url(#a6rmdyineb)"/>
                </g>
                <path fill="#4170FF" d="M65.952 18.027h-.67v11.091c0 1.698-1.365 3.073-3.048 3.073h-.186c-1.682 0-3.048-1.375-3.048-3.073V3.264C59 1.566 60.366.19 62.048.19h.186c1.683 0 3.049 1.375 3.049 3.073v8.617h.669c1.682 0 3.048 1.377 3.048 3.073 0 1.697-1.366 3.073-3.048 3.073m-17.087-3.083l7.532 9.672c.999 1.284.728 3.113-.601 4.068l-.31.224c-1.327.953-3.196.672-4.165-.625l-4.676-6.256c-1.868 3.925-4.464 6.66-7.557 7.938-1.94.802-4.088-.634-4.088-2.684v-.587c0-1.233.655-2.238 1.687-2.713 3.829-1.763 6.27-8.054 6.472-17.014h-4.271c-1.64 0-2.969-1.293-2.969-2.887 0-1.596 1.33-2.89 2.969-2.89h14.67c1.64 0 2.968 1.294 2.968 2.89 0 1.594-1.329 2.887-2.967 2.887H49.67c-.077 2.87-.345 5.554-.806 7.977" transform="translate(-144.000000, -176.000000) translate(144.000000, 176.809100)"/>
                <g transform="translate(-144.000000, -176.000000) translate(144.000000, 176.809100) translate(71.000000, 0.190900)">
                    <mask id="hii00fo3fd" fill="#fff">
                        <use xlink:href="#recbxs1ffc"/>
                    </mask>
                    <path fill="#4170FF" d="M25.283 11.091V8.056h-1.218c-1.31 0-2.397-1.008-2.486-2.308l-.042-.637c-.097-1.427 1.044-2.638 2.485-2.638h1.26C25.283 1.107 26.398 0 27.774 0h1.283c1.377 0 2.491 1.107 2.491 2.473v18.773c0 1.367-1.114 2.474-2.49 2.474h-1.284c-1.376 0-2.49-1.107-2.49-2.474v-4.571h-1.26c-1.442 0-2.583-1.212-2.486-2.64l.042-.637c.089-1.298 1.175-2.307 2.486-2.307h1.218zm-14.906 2.848c2.415 0 4.075-1.536 4.075-4.31 0-2.773-1.66-4.309-4.075-4.309-2.416 0-4.075 1.536-4.075 4.31 0 2.773 1.66 4.309 4.075 4.309zM32 28.815v.712C32 30.893 30.885 32 29.51 32H5.584c-1.376 0-2.49-1.107-2.49-2.473V23.27c0-1.367 1.114-2.473 2.49-2.473h1.51c1.375 0 2.49 1.106 2.49 2.473v3.071H29.51c1.376 0 2.491 1.108 2.491 2.474zm-21.623-9.592C4.187 19.223 0 15.438 0 9.629 0 3.86 4.188.036 10.377.036c6.188 0 10.377 3.823 10.377 9.593 0 5.809-4.189 9.594-10.377 9.594z" mask="url(#hii00fo3fd)"/>
                </g>
            </g>
        </g>
    </g>
</svg>
