<svg xmlns="http://www.w3.org/2000/svg" width="20" height="20" viewBox="0 0 20 20">
    <g fill="none" fill-rule="evenodd">
        <g>
            <g>
                <path fill="#4170FF" fill-rule="nonzero" d="M18.918.057L6.853 5.263H3.321C2.016 5.263.952 6.326.952 7.632v2.894c0 1.24.974 2.106 2.369 2.106h.895l.955 6.69c.056.39.389.678.781.678H9.11c.225 0 .44-.096.59-.263.15-.168.22-.39.195-.615l-.62-5.522 9.642 4.238c.095.038.194.057.293.057.155 0 .31-.047.444-.136.216-.147.346-.392.346-.654V.79c0-.262-.13-.507-.346-.654-.218-.147-.494-.177-.736-.079z" transform="translate(-30.000000, -331.000000) translate(30.000000, 331.000000)"/>
                <path fill="#D8D8D8" fill-opacity="0" d="M0 0H20V20H0z" transform="translate(-30.000000, -331.000000) translate(30.000000, 331.000000)"/>
            </g>
        </g>
    </g>
</svg>
