<svg xmlns="http://www.w3.org/2000/svg" width="30" height="30" viewBox="0 0 30 30">
    <g fill="none" fill-rule="evenodd">
        <g>
            <g>
                <path d="M0 28L28 28 28 0 0 0z" transform="translate(-204.000000, -172.000000) translate(205.000000, 173.000000)"/>
                <g stroke="#000" stroke-linecap="round" stroke-linejoin="round" stroke-width="1.7">
                    <path d="M27.478 28h-6.045c-.287 0-.52-.262-.52-.585V6.18c0-.646.466-1.17 1.041-1.17h5.003c.576 0 1.043.524 1.043 1.17v21.235c0 .323-.234.585-.522.585zM16.983 28H10.94c-.288 0-.522-.2-.522-.444V11.46c0-.49.467-.887 1.041-.887h5.003c.576 0 1.043.397 1.043.887v16.097c0 .245-.234.444-.52.444zM6.421 28H.508C.228 28 0 27.68 0 27.287V1.424C0 .637.456 0 1.018 0h4.893c.564 0 1.02.637 1.02 1.424v25.863c0 .394-.229.713-.51.713z" transform="translate(-204.000000, -172.000000) translate(205.000000, 173.000000)"/>
                </g>
            </g>
        </g>
    </g>
</svg>
