<svg xmlns="http://www.w3.org/2000/svg" width="30" height="30" viewBox="0 0 30 30">
    <g fill="none" fill-rule="evenodd">
        <g>
            <g>
                <path d="M0 28L28 28 28 0 0 0z" transform="translate(-324.000000, -172.000000) translate(325.000000, 173.000000)"/>
                <path stroke="#000" stroke-linecap="round" stroke-linejoin="round" stroke-width="1.7" d="M13.63 18.668c-2.57 0-4.665-2.095-4.665-4.67 0-2.57 2.095-4.666 4.666-4.666 2.574 0 4.668 2.095 4.668 4.667 0 2.574-2.094 4.669-4.668 4.669zm13.16-1.6l-2.571-2.012c.031-.312.06-.673.06-1.057 0-.385-.029-.749-.06-1.058l2.573-2.014c.48-.378.61-1.049.307-1.606L24.42 4.689c-.286-.523-.913-.791-1.549-.557L19.836 5.35c-.58-.419-1.19-.774-1.823-1.057l-.462-3.222C17.476.462 16.944 0 16.314 0H10.95c-.63 0-1.162.462-1.237 1.063l-.462 3.234c-.61.274-1.21.623-1.82 1.057L4.386 4.132c-.57-.22-1.25.026-1.537.546L.171 9.315c-.315.535-.185 1.228.304 1.615l2.573 2.014c-.04.393-.06.734-.06 1.055 0 .32.02.664.06 1.057L.472 17.07c-.477.378-.607 1.052-.304 1.61l2.675 4.628c.286.523.907.792 1.549.557l3.036-1.219c.583.419 1.193.775 1.823 1.058l.462 3.221c.075.613.607 1.075 1.237 1.075h5.367c.627 0 1.159-.462 1.234-1.063l.465-3.233c.61-.278 1.21-.624 1.817-1.058l3.045 1.222c.147.055.3.087.46.087.45 0 .87-.249 1.077-.633l2.69-4.654c.297-.546.167-1.22-.315-1.6z" transform="translate(-324.000000, -172.000000) translate(325.000000, 173.000000)"/>
            </g>
        </g>
    </g>
</svg>
