<svg xmlns="http://www.w3.org/2000/svg" width="30" height="30" viewBox="0 0 30 30">
    <g fill="none" fill-rule="evenodd">
        <g>
            <g>
                <path d="M0 28L28 28 28 0 0 0z" transform="translate(-84.000000, -172.000000) translate(85.000000, 173.000000)"/>
                <path stroke="#000" stroke-linecap="round" stroke-linejoin="round" stroke-width="1.7" d="M27.263 10.86v15.922c0 .673-.547 1.218-1.222 1.218H17.81c-.338 0-.611-.273-.611-.61v-7.148c0-2.005-1.63-3.63-3.642-3.63h-.01c-2.013 0-3.645 1.626-3.645 3.633v7.146c0 .336-.273.609-.61.609h-8.07C.547 28 0 27.455 0 26.782V10.864c0-.376.175-.732.473-.963L12.957.255c.442-.342 1.061-.34 1.502.005L26.795 9.9c.296.231.468.585.468.959z" transform="translate(-84.000000, -172.000000) translate(85.000000, 173.000000)"/>
            </g>
        </g>
    </g>
</svg>
