<svg xmlns="http://www.w3.org/2000/svg" xmlns:xlink="http://www.w3.org/1999/xlink" width="28" height="28" viewBox="0 0 28 28">
    <defs>
        <path id="hbzqgnns0a" d="M0 0L27.261 0 27.261 28 0 28z"/>
    </defs>
    <g fill="none" fill-rule="evenodd">
        <g>
            <g>
                <g transform="translate(-325.000000, -61.000000) translate(325.000000, 61.002300) translate(0.000000, 0.000000)">
                    <mask id="1uncykaegb" fill="#fff">
                        <use xlink:href="#hbzqgnns0a"/>
                    </mask>
                    <path fill="#4170FF" d="M18.98 14c0 2.957-2.4 5.363-5.349 5.363-2.948 0-5.349-2.406-5.349-5.363 0-2.956 2.4-5.361 5.35-5.361 2.948 0 5.348 2.405 5.348 5.361m7.45 2.022h-.01l-1.935-1.514c.01-.166.01-.33.01-.508 0-.176 0-.341-.01-.507l1.945-1.526c.838-.663 1.065-1.834.538-2.82l-2.463-4.263c-.527-.964-1.655-1.378-2.731-.984l-2.287.922c-.279-.185-.569-.351-.869-.497l-.341-2.416C18.142.82 17.21 0 16.104 0h-4.956C10.051 0 9.12.809 8.986 1.878l-.352 2.447c-.29.155-.57.32-.859.497L5.458 3.9c-.994-.394-2.183.03-2.69.954L.305 9.137c-.559.933-.331 2.157.528 2.842l1.945 1.514c-.01.176-.01.342-.01.507 0 .156 0 .332.01.508L.833 16.033c-.838.664-1.066 1.835-.538 2.821l2.462 4.262c.518.954 1.656 1.379 2.721.985l2.297-.922c.28.176.57.351.859.497l.352 2.416C9.12 27.18 10.05 28 11.148 28h4.966c1.097 0 2.028-.808 2.163-1.877l.352-2.447c.29-.155.569-.32.858-.497l2.328.932c1.056.395 2.194-.071 2.67-.964l2.503-4.325c.518-.954.28-2.125-.558-2.8" mask="url(#1uncykaegb)"/>
                </g>
                <path d="M0 28L28 28 28 0 0 0z" transform="translate(-325.000000, -61.000000) translate(325.000000, 61.002300)"/>
            </g>
        </g>
    </g>
</svg>
