<svg xmlns="http://www.w3.org/2000/svg" xmlns:xlink="http://www.w3.org/1999/xlink" width="28" height="28" viewBox="0 0 28 28">
    <defs>
        <path id="mk9sp9s0ya" d="M0 0L27.261 0 27.261 28 0 28z"/>
    </defs>
    <g fill="none" fill-rule="evenodd">
        <g>
            <g>
                <g transform="translate(-85.000000, -61.000000) translate(85.000000, 61.000000) translate(0.000000, 0.000000)">
                    <mask id="hslz4gizqb" fill="#fff">
                        <use xlink:href="#mk9sp9s0ya"/>
                    </mask>
                    <path fill="#4170FF" d="M27.26 11.098v14.735c0 1.192-.971 2.167-2.162 2.167h-7.606c-.881 0-1.605-.715-1.605-1.597v-6.626c0-1.274-1.046-2.323-2.33-2.323-1.293 0-2.338 1.049-2.338 2.333v6.616c0 .882-.725 1.597-1.604 1.597H2.163C.963 28 0 27.025 0 25.833V11.098c0-.673.3-1.296.838-1.71l11.53-8.93c.786-.61 1.883-.61 2.66 0l11.405 8.93c.528.414.828 1.037.828 1.71" mask="url(#hslz4gizqb)"/>
                </g>
                <path d="M0 28.003L28 28.003 28 0.003 0 0.003z" transform="translate(-85.000000, -61.000000) translate(85.000000, 61.000000)"/>
            </g>
        </g>
    </g>
</svg>
